<?xml version="1.0" encoding="UTF-8"?>
<svg xmlns="http://www.w3.org/2000/svg" xmlns:xlink="http://www.w3.org/1999/xlink" version="1.1" x="0px" y="0px" width="635.838px" height="303.036px" viewBox="0 0 635.838 303.036" xml:space="preserve">
<g id="Layer_1">
</g>
<g id="Isolation_Mode">
	<g>
		<path fill="#000" d="M621.957,97.809c-3.019-2.359-7.422-3.784-13.461-4.358c-9.808-0.927-18.726,0.783-26.348,5.056    c-5.742,3.219-8.832,6.315-12.721,12.736l-0.238,0.472c-1.278,2.937-22.609,28.294-30.843,36.665    c-9.172,9.325-12.833,10.113-13.751,10.133l-0.09-0.002c-0.037-0.002-0.112-0.006-0.329-0.27c-0.26-0.314-0.305-0.535-0.291-0.77    c0.053-0.965,0.329-2.854,1.332-6.315c0.01-0.029,0.018-0.054,0.024-0.075l0.087-0.153l12.043-34.202    c0.566-1.62,1.395-3.836,2.526-6.768c2.313-5.937,3.443-9.707,3.559-11.855l0.018-0.308c0.147-1.384-0.407-3.35-2.403-4.829    c-1.374-1.018-7.725-3.428-10.632-4.252c-3.45-0.972-7.051-1.565-10.706-1.764c-6.257-0.336-12.563,0.573-18.688,2.699    c-6.088,2.112-11.921,5.385-17.351,9.739c-7.962,6.47-12.907,12.619-18.309,20.446c-0.186,0.27-0.514,0.763-0.958,1.434    c-2.866,4.331-10.48,15.836-16.607,21.911c-5.385,5.338-13.019,12.432-17.213,12.408c-0.585-0.013-0.966-0.174-1.317-0.555    c-0.268-0.29-0.538-0.705-0.52-1.586c0.027-1.118,0.185-2.402,0.471-3.821c0.291-1.454,0.765-3.101,1.409-4.897l13.431-43.111    l9.69,0.217l0.36-0.071c1.272-0.245,2.973-1.253,3.575-3.285c0.222-0.747,0.744-2.769,0.923-3.673    c0.268-1.383-0.093-2.791-0.989-3.861c-0.86-1.029-2.105-1.624-3.418-1.631h-0.093c-0.448-0.002-3.109-0.068-6.151-0.147    l8.545-27.919c0.142-0.404,0.252-0.838,0.333-1.311c0.063-0.409,0.103-0.884,0.117-1.498c0.04-1.646-0.671-2.756-0.901-3.114    c-0.497-0.781-1.712-2.092-4.272-2.106l-0.207,0.002c-0.682,0.015-1.202,0.115-1.253,0.125l-7.974,1.561    c-1.885,0.334-3.433,1.169-4.601,2.481c-0.97,1.089-1.791,2.672-2.588,4.989l-8.916,26.283l-10.299-0.23l-0.187,0.003    c-1.631,0.071-3.594,1.193-4.306,3.545c-0.268,0.888-0.612,1.914-0.996,2.968c-0.951,2.609,0.462,4.97,2.379,5.746l0.593,0.24    l7.465,0.167c-5.073,9.571-16.981,30.23-30.404,40.979l-0.109,0.093c-10.659,9.594-20.318,14.467-28.717,14.484l-0.222-0.001    c-4.119-0.021-7.122-1.25-9.449-3.862c-1.99-2.237-3.183-5.298-3.553-9.114c14.132-4.611,25.731-10.595,34.495-17.798    c9.787-8.047,14.731-16.333,14.69-24.628c-0.029-5.499-2.214-10.12-6.495-13.738c-4.046-3.411-9.146-5.158-15.159-5.191h-0.325    c-5.734,0.023-11.7,1.704-17.732,4.998c-5.896,3.22-11.26,7.685-15.942,13.268c-4.151,4.944-6.93,10.072-9.631,15.057    l-0.046,0.086c-0.595,1.097-1.183,2.183-1.781,3.253c-1.324,2.373-13.154,18.904-18.7,24.16    c-10.203,9.671-19.501,14.719-27.642,15.005c-4.664,0.176-8.303-1.002-10.731-3.512c-2.514-2.596-3.884-6.628-4.072-11.987    c-0.201-5.687,0.897-12.174,3.265-19.281c2.38-7.148,5.553-13.35,9.46-18.473c2.257-3.105,4.583-5.479,6.911-7.055    c2.114-1.431,4.175-2.191,6.106-2.259l0.314-0.005c1.488,0.008,2.112,0.502,2.447,0.868c0.704,0.772,1.108,2.1,1.17,3.838    c0.047,1.391-0.466,2.938-1.525,4.6c-1.157,1.815-2.737,3.337-4.698,4.526l-3.368,2.042l2.438,3.096    c1.218,1.542,2.663,2.66,4.293,3.322c1.341,0.547,2.923,0.83,4.703,0.839c0.16,0.001,0.323,0,0.505-0.004l0.25-0.007    c4.771-0.168,8.871-1.962,12.186-5.331c3.366-3.421,4.99-7.5,4.827-12.127c-0.195-5.528-2.481-9.989-6.794-13.259    c-4.106-3.113-9.384-4.58-15.508-4.348c-6.336,0.225-12.713,2.237-18.956,5.982c-4.75,2.847-9.375,6.643-13.762,11.3l-1.308,1.423    c-0.768,0.855-1.525,1.731-2.263,2.62c-5.453,6.709-8.689,12.239-10.494,17.931c-1.281,4.034-11.485,17.415-17.435,23.441    c-10.047,10.18-19.404,15.614-27.814,16.153c-4.135,0.272-7.378-0.792-9.88-3.289c-1.96-1.953-3.281-4.656-3.938-8.05    c0.098-0.045,0.196-0.089,0.293-0.134c6.27-2.784,11.405-5.46,15.273-7.962l0.407-0.267c6.66-3.702,12.469-7.831,17.267-12.275    c9.297-8.611,13.742-17.174,13.21-25.451c-0.352-5.489-2.806-9.973-7.293-13.33c-4.309-3.222-9.642-4.665-15.765-4.269    c-5.736,0.368-11.593,2.398-17.406,6.035c-5.694,3.56-10.785,8.334-15.132,14.187c-4.705,6.33-8.241,12.862-10.51,19.417    c-2.17,6.283-3.15,12.472-2.916,18.413c-0.328,0.106-0.643,0.21-0.95,0.312c-7.594,2.537-13.282,3.764-17.896,3.863    c-1.515,0.032-2.938-0.053-4.367-0.261c-1.187-0.172-7.983-1.394-11.695-2.556c-2.234-2.622-4.467-5.253-6.695-7.896    c-5.033-5.964-10.224-11.831-15.472-17.489c11.26-1.234,22.493-3.596,33.455-7.038c13.378-4.199,25.455-9.984,35.896-17.196    c10.544-7.275,19.128-16.114,25.515-26.274c6.495-10.341,9.647-22.2,9.368-35.248c-0.198-9.263-3.804-17.02-10.72-23.056    c-7.38-6.441-19.274-10.04-32.404-9.755c-10.771,0.23-23.476,3.57-33.987,8.934c-9.86,5.035-17.325,11.379-25.5,19.356    c-7.782,7.59-13.796,16.572-20.163,26.081l-1.328,1.982c-6.159,9.182-12.016,18.823-17.429,28.688    c-6.514-4.346-13.278-8.004-20.141-10.89c-8.119-3.411-16.841-5.525-26.002-6.291l-0.539-0.01    c-0.455-0.002-0.895,0.001-1.322,0.01c-6.078,0.13-10.123,1.475-13.964,4.644c-3.779,3.125-5.636,7.452-5.52,12.861    c0.073,3.422,1.302,6.931,3.653,10.431c2.237,3.331,5.688,6.533,10.254,9.518c4.426,2.899,10.136,5.509,16.97,7.757    c4.482,1.477,11.526,3.457,20.476,4.866c-5.521,12.619-18.137,33.895-27.514,49.709c-10.942,18.452-11.576,19.765-11.492,21.543    c0.105,2.247,1.974,4.58,4.922,4.597l0.146-0.001c0.66-0.015,1.331-0.152,1.996-0.409c8.8-3.414,17.919-11.885,27.106-25.174    c7.215-10.437,12.498-20.931,15.037-25.973l0.612-1.212c3.54-6.969,7.039-14.211,10.413-21.548c0.403,0.026,0.81,0.052,1.22,0.08    l0.47,0.03c4.272,0.283,9.16,0.606,13.961,0.59c13.86,18.045,23.355,30.444,30.335,39.56l0.077,0.102    c15.739,20.556,17.025,22.234,22.236,28.318c6.556,7.652,13.417,14.496,20.391,20.34c7.079,5.929,14.526,10.704,22.134,14.193    c3.052,1.396,11.981,4.586,15.162,5.417c0.567,0.147,1.181,0.225,1.827,0.228l0.229-0.001c5.682-0.122,15.821-6.533,16.206-11.248    c0.158-1.954-0.974-4.166-3.862-4.703c-3.432-0.636-6.83-1.562-10.098-2.751c-7.647-2.785-15.087-6.696-22.113-11.627    c-7.14-5.011-14.121-10.886-20.752-17.463c-6.492-6.436-12.97-13.35-19.267-20.561c2.805-0.138,5.648-0.498,8.435-0.854    l1.917-0.243c4.052-0.498,8.581-1.502,13.486-2.987c1.589,3.887,3.862,7.246,6.777,10.011c5.715,5.416,13.193,7.887,22.183,7.323    c10.504-0.674,21.197-5.222,31.782-13.516c5.351-4.191,10.595-9.285,15.637-15.18c1.264,6.449,4.246,11.925,8.9,16.326    c5.681,5.365,12.77,8.109,21.071,8.156c0.507,0.002,1.019-0.006,1.539-0.022c11.051-0.392,22.318-4.914,33.489-13.44    c5.026-3.838,9.971-8.445,14.748-13.735c0.973,6.669,3.541,12.257,7.669,16.661c5.316,5.67,12.479,8.57,21.286,8.619h0.424    c10.531-0.056,21.475-3.964,32.527-11.617c7.413-5.133,14.683-11.814,21.696-19.931c-0.429,1.541-0.809,2.981-1.138,4.313    c-0.993,4.025-1.499,6.967-1.546,8.994c-0.125,5.506,1.454,9.914,4.688,13.103c3.177,3.14,7.613,4.794,13.191,4.919l0.281,0.005    c6.484,0.035,13.635-3.233,21.253-9.716c3.219-2.736,6.821-6.322,10.748-10.7c0.528,5.072,2.02,9.387,4.456,12.874    c3.685,5.274,8.993,8.137,15.779,8.506c6.049,0.312,12.439-2.543,18.967-8.515c2.333-2.134,4.839-4.817,7.496-8.022    c-0.285,1.358-0.452,2.517-0.505,3.488c-0.247,4.537,0.89,8.195,3.384,10.872c2.456,2.636,5.977,4.097,10.468,4.343    c0.179,0.01,0.36,0.016,0.543,0.017c10.02,0.055,25.664-13.022,49.237-41.153l1.465-1.745l1.144-1.432    c0.484-0.588,0.951-1.167,1.399-1.735c1.943,3.15,6.148,7.648,12.856,13.75c6.432,5.779,8.752,8.735,9.564,10.196    c1.037,1.87,1.449,3.745,1.259,5.735c-0.28,2.985-1.781,5.224-4.724,7.043c-3.18,1.965-7.164,2.74-11.803,2.298    c-2.787-0.265-4.976-1.019-6.505-2.245c-1.462-1.168-1.573-2.123-1.507-2.825c0.086-0.911,0.388-1.694,0.954-2.467    c0.448-0.615,1.708-1.615,2.08-1.843l0.145-0.062c1.488-0.683,2.406-2.081,2.396-3.651c-0.013-1.547-0.94-2.952-2.358-3.577    c-0.342-0.15-2.113-0.921-3.42-1.278c-1.226-0.33-2.493-0.56-3.771-0.684c-4.463-0.419-8.394,0.405-11.612,2.437    c-3.474,2.194-5.505,5.413-5.875,9.311c-0.32,3.402,0.574,8.365,6.656,12.684c4.299,3.053,10.094,4.945,17.225,5.624    c1.642,0.153,3.353,0.212,5.069,0.179c1.935-0.042,3.94-0.21,5.963-0.498c3.992-0.578,8.315-1.689,11.857-3.049    c4.961-1.904,9.416-4.464,11.623-6.678l0.41-0.409c2.031-2.031,4.333-4.332,5.606-6.862c1.162-2.318,1.911-5.798,2.135-8.214    c0.361-3.786-0.408-7.566-2.287-11.231c-1.748-3.416-4.612-7.055-8.548-10.846c-1.41-1.302-3.383-3.087-6.056-5.478    c-8.78-7.631-9.44-11.478-9.316-12.779c0.191-2.027,1.227-3.562,3.257-4.829c2.285-1.421,5.227-1.977,8.71-1.648    c2.075,0.197,3.645,0.751,4.666,1.647c0.923,0.813,1.002,1.434,0.948,1.988c-0.101,1.069-0.436,2.087-0.993,3.025    c-0.469,0.787-1.552,1.871-1.981,2.206c-1.676,0.707-2.722,2.519-2.463,4.336c0.215,1.551,1.485,3.399,4.312,3.504    c0.501,0.029,1.026,0.039,1.572,0.027c4.122-0.088,8.658-1.324,11.838-3.227c4.217-2.523,6.539-5.75,6.903-9.592    C626.921,104.299,625.357,100.466,621.957,97.809 M523.807,100.476c-8.438,17.544-16.69,31.552-24.535,41.657    c-9.811,12.642-15.076,14.507-17.342,14.496c-0.069,0-0.14-0.002-0.212-0.006c-0.984-0.054-1.556-0.406-2.107-1.305    c-0.757-1.225-1.078-2.989-0.955-5.244c0.254-4.677,1.893-10.104,4.871-16.129c3.087-6.236,7.541-13.046,13.228-20.223    c4.226-5.23,8.282-9.146,12.057-11.636c3.146-2.074,6.031-3.155,8.57-3.209l0.251-0.002c0.155,0.001,0.309,0.006,0.465,0.014    c1.566,0.085,3.064,0.416,4.451,0.981C522.998,100.055,523.418,100.257,523.807,100.476 M349.206,131.186    c2.01-9.896,5.32-18.369,9.863-25.229c4.896-7.389,9.712-11.186,14.307-11.284l0.241-0.002c1.739,0.009,2.434,0.58,2.8,1.005    c0.714,0.83,1.096,2.225,1.105,4.033c0.034,6.972-3.021,13.644-9.08,19.83C363.311,124.775,356.851,128.684,349.206,131.186     M208.898,125.032c-4.812,5.529-11.029,9.813-18.515,12.762c1.423-10.001,4.229-18.656,8.358-25.767    c4.496-7.745,9.129-11.823,13.778-12.12c0.111-0.007,0.22-0.012,0.318-0.015l0.186-0.001c1.442,0.008,2.078,0.492,2.429,0.852    c0.76,0.783,1.223,2.152,1.339,3.958C217.236,111.66,214.58,118.501,208.898,125.032 M84.456,112.347    c-0.366-0.013-0.732-0.026-1.099-0.041l0.317-0.681C83.93,111.861,84.192,112.101,84.456,112.347 M163.577,91.225    c-8.666,6.097-18.62,10.998-29.584,14.568c-10.513,3.422-21.367,5.554-32.28,6.341c-2.167-2.175-4.43-4.362-6.74-6.515    c-2.013-1.87-4.061-3.751-6.104-5.607c4.581-9.739,9.381-19.424,14.279-28.809c5.179-9.915,10.901-18.833,17.004-26.504    c6.009-7.544,12.744-13.705,20.017-18.311c7.061-4.474,15.114-6.838,23.933-7.026c9.406-0.198,16.376,1.789,20.67,5.9    c4.295,4.118,6.544,9.511,6.684,16.03c0.222,10.464-2.216,19.947-7.246,28.185C179.072,77.89,172.13,85.207,163.577,91.225     M67.406,99.222l-5.429,10.911c-6.154-0.997-11.683-2.305-16.454-3.893c-5.384-1.784-9.943-3.72-13.552-5.753    c-3.452-1.944-6.066-3.89-7.772-5.784c-1.808-2.006-2.098-3.226-2.11-3.775c-0.008-0.421-0.024-1.127,1.563-2.019    c1.209-0.679,3.736-1.511,8.91-1.622c0.41-0.009,0.821-0.012,1.231-0.01c5.68,0.031,11.292,1.115,18.193,3.514    C57.454,92.697,62.609,95.903,67.406,99.222"></path>
		<path fill="#000" d="M605.858,210.246c1.397,0.008,2.467-0.388,3.267-1.049c0.874-0.794,1.28-1.857,1.289-3.454l0.034-6.194    c0.013-2.396-0.445-3.598-1.245-4.47c-0.725-0.801-1.922-1.274-3.254-1.282c-1.064-0.006-2.133,0.122-3.93,0.312l-53.175,4.966    c-1.533,0.126-2.27,0.589-2.805,1.185c-0.603,0.664-0.872,1.529-0.879,2.729l-0.02,3.46c-0.007,1.332,0.254,1.932,0.718,2.469    c0.596,0.669,1.458,1.007,2.661,1.014L605.858,210.246z"></path>
		<path fill="#000" d="M513.786,287.922c-0.01,1.733,0.518,3.003,1.312,4.007c0.994,1.204,2.389,1.946,4.45,1.958l7.927,0.043    c2.064,0.012,3.469-0.715,4.471-1.908c0.808-0.996,1.347-2.258,1.356-3.992l0.481-87.169c0.01-1.734-0.518-3.002-1.313-4.005    c-0.988-1.205-2.385-1.946-4.45-1.958l-7.925-0.044c-2.063-0.012-3.466,0.714-4.472,1.909c-0.806,0.994-1.347,2.256-1.356,3.989    L513.786,287.922z"></path>
		<path fill="#000" d="M473.391,222.235l-3.729-0.021c-1.397-0.007-2.467,0.39-3.271,1.049c-0.869,0.795-1.274,1.857-1.283,3.455    l-0.025,4.598c-0.009,1.599,0.385,2.666,1.244,3.468c0.798,0.671,1.862,1.079,3.261,1.086l3.729,0.021l-0.184,33.232    c-0.047,8.523,2.253,13.862,6.559,18.147c3.976,3.955,9.157,6.447,18.212,6.497l5.665,0.031c1.396,0.008,2.463-0.385,3.266-1.049    c0.871-0.795,1.409-1.855,1.418-3.453l0.032-5.799c0.009-1.594-0.518-2.662-1.38-3.468c-0.796-0.672-1.858-1.075-3.254-1.083    l-0.802-0.005c-3.597-0.019-6.057-0.964-7.711-2.572c-1.988-1.878-2.974-4.746-2.952-8.475l0.176-31.9l12.124,0.067    c1.396,0.008,2.464-0.389,3.267-1.051c0.873-0.792,1.276-1.854,1.285-3.454l0.025-4.597c0.009-1.598-0.383-2.665-1.247-3.47    c-0.795-0.668-1.858-1.076-3.255-1.084l-12.057-0.067l0.12-21.709c0.01-1.732-0.515-3-1.309-4.002    c-0.992-1.207-2.389-1.946-4.452-1.958l-7.527-0.041c-2.063-0.012-3.466,0.712-4.472,1.908c-0.802,0.993-1.343,2.255-1.353,3.987    L473.391,222.235z"></path>
		<path fill="#000" d="M431.911,219.476c-18.247-0.101-30.28,8.49-30.356,22.344c-0.027,4.928,1.747,8.934,4.661,12.081    c3.376,3.68,8.223,6.239,15.272,8.075l15.23,3.945c4.19,1.09,7.911,2.376,7.891,6.037c-0.031,5.664-6.034,7.562-12.428,7.525    c-3.128-0.017-6.391-0.633-9.045-1.979c-1.861-0.943-3.453-2.284-4.573-4.089c-0.991-1.538-1.317-2.673-2.846-3.548    c-0.929-0.537-2.062-0.609-3.594-0.618l-8.259-0.044c-1.794-0.012-2.664,0.517-3.27,1.247c-0.602,0.729-0.807,1.794-0.813,2.859    c-0.015,2.662,0.9,5.998,3.078,9.009c5.022,6.819,15.585,12.338,29.104,12.413c13.319,0.073,31.797-5.352,31.896-23.2    c0.025-4.595-1.286-8.533-3.731-11.74c-3.11-4.082-7.555-6.905-15.137-8.876l-15.096-3.947c-6.251-1.634-9.175-2.781-9.153-6.646    c0.021-3.729,3.366-6.704,11.088-6.662c4.532,0.024,8.656,1.045,11.304,3.856c2.187,2.344,1.78,3.54,3.509,4.482    c1.061,0.539,2.257,0.546,4.125,0.556l7.521,0.042c1.202,0.006,2.068-0.188,2.736-0.917c0.536-0.598,0.875-1.529,0.884-3.061    c0.019-3.462-2.221-7.938-6.195-11.355C450.411,222.64,442.038,219.532,431.911,219.476"></path>
		<path fill="#000" d="M394.388,261.161c1.136-1.059,1.678-2.589,1.693-5.453c0.049-8.725-2.631-17.795-8.322-24.753    c-5.82-7.028-14.721-11.804-27.309-11.873c-23.108-0.128-36.194,17.849-36.3,36.894c-0.111,20.313,13.708,38.239,36.02,38.362    c11.123,0.062,22.069-4.073,28.369-11.431c2.747-3.182,4.972-7.633,4.987-10.363c0.005-0.932-0.189-1.731-0.721-2.335    c-0.53-0.67-1.326-1.071-2.727-1.08l-10.722-0.06c-2.132-0.012-3.599,0.779-4.675,2.372c-3.155,4.578-7.696,6.952-14.357,6.916    c-9.99-0.056-16.406-7.686-16.829-16.014l46.354,0.256C391.915,262.611,393.385,262.154,394.388,261.161 M343.708,248.159    c0.911-8.187,7.206-14.278,16.729-14.226c9.324,0.052,15.75,6.214,16.571,14.41L343.708,248.159z"></path>
		<path fill="#000" d="M612.067,261.161c1.136-1.059,1.677-2.589,1.693-5.453c0.048-8.725-2.632-17.795-8.323-24.753    c-5.82-7.028-14.72-11.804-27.309-11.873c-23.107-0.128-36.194,17.849-36.299,36.894c-0.112,20.313,13.707,38.239,36.019,38.362    c11.123,0.062,22.069-4.073,28.37-11.431c2.747-3.182,4.972-7.633,4.986-10.363c0.005-0.932-0.189-1.731-0.721-2.335    c-0.529-0.67-1.326-1.071-2.727-1.08l-10.722-0.06c-2.132-0.012-3.599,0.779-4.675,2.372c-3.155,4.578-7.696,6.952-14.357,6.916    c-9.989-0.056-16.406-7.686-16.829-16.014l46.354,0.256C609.592,262.611,611.063,262.154,612.067,261.161 M561.386,248.159    c0.911-8.187,7.206-14.278,16.728-14.226c9.325,0.052,15.751,6.214,16.571,14.41L561.386,248.159z"></path>
		<path fill="#000" d="M299.842,195.834c-0.94,1.129-1.48,2.39-1.492,4.591l-0.334,60.469l-0.333-0.002    c0,0-32.772-59.188-34.357-61.928c-1.121-1.937-2.376-3.276-4.037-4.285c-1.66-0.942-3.388-1.551-6.718-1.569l-10.922-0.061    c-2.531-0.014-4.135,0.844-5.273,2.171c-0.941,1.126-1.48,2.387-1.492,4.586l-0.474,85.714c-0.012,2.196,0.514,3.468,1.442,4.602    c1.123,1.338,2.718,2.214,5.248,2.228l6.195,0.034c2.529,0.014,4.131-0.844,5.272-2.169c0.937-1.124,1.478-2.39,1.49-4.586    l0.342-61.938l0.333,0.002c0,0,34.028,61.061,35.417,63.33c1.914,3.208,5.161,5.625,9.824,5.651l10.588,0.058    c2.533,0.015,4.134-0.844,5.273-2.169c0.939-1.124,1.48-2.389,1.492-4.585l0.428-77.323l139.122,0.769    c1.4,0.008,2.467-0.389,3.27-1.049c0.871-0.795,1.273-1.857,1.283-3.454l0.032-5.862c0.009-1.597-0.383-2.665-1.245-3.469    c-0.795-0.672-1.855-1.076-3.257-1.084l-151.843-0.839C302.584,193.653,300.982,194.509,299.842,195.834"></path>
		<path fill="#000" d="M626.978,297.59c-1.789,1.712-3.929,2.561-6.42,2.547c-2.573-0.014-4.736-0.906-6.49-2.68    c-1.753-1.772-2.623-3.945-2.608-6.521c0.015-2.673,0.978-4.889,2.894-6.649c1.796-1.646,3.898-2.462,6.306-2.449    c2.525,0.015,4.676,0.92,6.454,2.718c1.777,1.797,2.659,3.958,2.645,6.482C629.744,293.637,628.817,295.821,626.978,297.59     M615.263,285.658c-1.465,1.482-2.203,3.245-2.214,5.288c-0.012,2.12,0.72,3.923,2.191,5.413c1.465,1.49,3.24,2.24,5.325,2.251    c2.078,0.012,3.857-0.724,5.339-2.204c1.481-1.489,2.229-3.282,2.241-5.376c0.01-2.036-0.714-3.808-2.171-5.313    c-1.473-1.531-3.247-2.303-5.325-2.313C618.549,283.392,616.752,284.143,615.263,285.658 M616.571,296.056l0.056-10.143    c0.63,0.004,1.57,0.011,2.824,0.022c1.255,0.011,1.951,0.021,2.093,0.029c0.802,0.063,1.467,0.24,1.996,0.532    c0.897,0.502,1.345,1.312,1.339,2.429c-0.005,0.853-0.247,1.467-0.725,1.843s-1.064,0.601-1.76,0.671    c0.637,0.136,1.116,0.334,1.437,0.593c0.594,0.486,0.888,1.246,0.883,2.281l-0.005,0.905c-0.001,0.1,0.005,0.198,0.017,0.298    c0.013,0.1,0.036,0.199,0.071,0.298l0.092,0.287l-2.532-0.014c-0.081-0.323-0.134-0.791-0.16-1.404    c-0.025-0.611-0.079-1.027-0.16-1.242c-0.131-0.356-0.377-0.606-0.741-0.749c-0.198-0.084-0.5-0.14-0.905-0.167l-0.583-0.04    l-0.559-0.003l-0.02,3.588L616.571,296.056z M621.458,287.939c-0.364-0.143-0.877-0.216-1.54-0.22l-0.645-0.003l-0.017,2.941    l1.03,0.006c0.62,0.004,1.106-0.118,1.455-0.364c0.348-0.247,0.524-0.646,0.528-1.201    C622.273,288.542,622.003,288.157,621.458,287.939"></path>
	</g>
</g>
</svg>
